<?xml version="1.0" encoding="UTF-8" standalone="no"?>
<!-- Created with Inkscape (http://www.inkscape.org/) -->

<svg
   xmlns:dc="http://purl.org/dc/elements/1.1/"
   xmlns:cc="http://creativecommons.org/ns#"
   xmlns:rdf="http://www.w3.org/1999/02/22-rdf-syntax-ns#"
   xmlns:svg="http://www.w3.org/2000/svg"
   xmlns="http://www.w3.org/2000/svg"
   xmlns:sodipodi="http://sodipodi.sourceforge.net/DTD/sodipodi-0.dtd"
   xmlns:inkscape="http://www.inkscape.org/namespaces/inkscape"
   sodipodi:docname="traced-face.svg"
   inkscape:version="0.91 r13725"
   version="1.1"
   id="svg2"
   viewBox="0 0 360.00001 359.99998"
   height="100%"
   width="100%">
    <style type="text/css">
        @keyframes dashit {
            0% { stroke-dashoffset: 1380; }
            50% { stroke-dashoffset: 800; }
            100% { stroke-dashoffset: 0; }
        }
        path {
            stroke-dasharray: 1380;
            stroke-dashoffset: 1380;
            animation: dashit 3s forwards linear 1;
        }
    </style>
  <defs
     id="defs4" />
  <sodipodi:namedview
     inkscape:window-maximized="1"
     inkscape:window-y="-8"
     inkscape:window-x="-8"
     inkscape:window-height="961"
     inkscape:window-width="1280"
     fit-margin-bottom="0"
     fit-margin-right="0"
     fit-margin-left="0"
     fit-margin-top="0"
     units="px"
     showgrid="false"
     inkscape:current-layer="layer1"
     inkscape:document-units="px"
     inkscape:cy="167.91577"
     inkscape:cx="124.38468"
     inkscape:zoom="1.4"
     inkscape:pageshadow="2"
     inkscape:pageopacity="0.0"
     borderopacity="1.0"
     bordercolor="#666666"
     pagecolor="#ffffff"
     id="base" />
  <metadata
     id="metadata7">
    <rdf:RDF>
      <cc:Work
         rdf:about="">
        <dc:format>image/svg+xml</dc:format>
        <dc:type
           rdf:resource="http://purl.org/dc/dcmitype/StillImage" />
        <dc:title></dc:title>
      </cc:Work>
    </rdf:RDF>
  </metadata>
  <g
     inkscape:label="Layer 1"
     inkscape:groupmode="layer"
     id="layer1"
     transform="translate(0,-1.5258789e-5)">
    <path
       style="fill:none;stroke:#000000;stroke-opacity:1;fill-opacity:1"
       d="m 154,358.38081 c 0,-0.34055 1.51751,-3.15305 3.37225,-6.25 1.85474,-3.09695 5.66933,-10.14181 8.47687,-15.65525 C 171.31987,325.73213 179.93077,315 183.07999,315 c 1.056,0 1.92001,0.675 1.92001,1.5 0,0.825 0.47656,1.5 1.05902,1.5 0.58246,0 0.81063,-0.40189 0.50705,-0.8931 -0.61146,-0.98936 5.36517,0.1411 7.56598,1.43108 4.4054,2.58218 11.80461,9.80057 17.42791,17.00202 3.54941,4.54554 7.91295,9.58647 9.69676,11.20206 8.44692,7.65041 9.20195,9.74003 1.02645,2.84081 -5.06926,-4.27789 -10.88337,-9.96329 -12.92025,-12.63422 -2.03688,-2.67093 -4.14634,-4.58251 -4.68768,-4.24794 -0.54134,0.33457 -0.70994,0.16445 -0.37466,-0.37803 0.33527,-0.54249 -1.5077,-3.0486 -4.0955,-5.56914 l -4.70508,-4.58279 -5.96223,0.96178 c -7.79654,1.25767 -10.45604,2.62531 -13.35442,6.86747 -2.19136,3.20733 -2.3473,4.21076 -1.8649,12 0.39374,6.35766 0.28439,7.67189 -0.43384,5.21436 -0.52815,-1.8071 -1.39324,-3.01804 -1.92244,-2.69098 C 171.41595,344.86097 171,343.60499 171,341.61803 c 0,-3.995 -1.54289,-5.63361 -2.49121,-2.64574 C 167.50338,342.14006 156.14678,359 155.01842,359 154.45829,359 154,358.72136 154,358.38081 Z m 26.13671,-36.16857 c -0.72144,-0.24048 -1.78716,0.0382 -2.36826,0.61931 -0.74207,0.74207 -0.35164,0.87221 1.31171,0.43724 1.3522,-0.35361 1.8055,-0.8069 1.05655,-1.05655 z M 191.25,320.33772 c -0.6875,-0.27741 -1.8125,-0.27741 -2.5,0 -0.6875,0.27741 -0.125,0.50439 1.25,0.50439 1.375,0 1.9375,-0.22698 1.25,-0.50439 z m -8.01008,-1.68944 c 0.63721,0.39382 0.77678,0.18776 0.34549,-0.51008 -0.85086,-1.37672 -2.62054,-0.55006 -2.50646,1.17082 0.0565,0.85244 0.22291,0.83389 0.58541,-0.0652 0.27855,-0.69093 0.98755,-0.9589 1.57556,-0.59549 z m 1.8561,39.28412 c -2.97219,-0.4133 -6.12219,-0.50094 -7,-0.19475 -1.32338,0.46161 -1.3747,0.31803 -0.30044,-0.84047 0.83211,-0.89737 4.37908,-1.57605 9.91519,-1.89718 l 8.6196,-0.5 1.34764,-3.5 1.34765,-3.5 -0.65022,3.5 c -0.35761,1.925 -0.63925,4.46015 -0.62585,5.63368 0.0205,1.7991 -0.54594,2.12713 -3.61262,2.09192 -2.00033,-0.023 -6.06876,-0.3799 -9.04095,-0.7932 z m 3.66564,-1.61948 c -0.95609,-0.25029 -2.75609,-0.25937 -4,-0.0202 -1.24391,0.23919 -0.46166,0.44398 1.73834,0.45508 2.2,0.0111 3.21775,-0.18461 2.26166,-0.4349 z M 202.02224,341.25 c 0.0122,-0.4125 0.93931,-1.875 2.06019,-3.25 l 2.03796,-2.5 -1.58588,3.25 c -1.50699,3.08835 -2.56081,4.13702 -2.51227,2.5 z m -18.28172,-27.67931 c -2.06771,-0.73784 -4.31771,-1.76826 -5,-2.28982 -0.68228,-0.52156 -7.45875,-5.55428 -15.05882,-11.18381 -14.84888,-10.9989 -19.24217,-15.07729 -26.17217,-24.29623 -5.71969,-7.60886 -6.43116,-11.23639 -3.39583,-17.31405 1.2726,-2.54813 2.55513,-4.78199 2.85006,-4.96413 0.29493,-0.18213 0.63377,1.93615 0.75298,4.70731 0.34056,7.9167 1.93701,11.29517 7.55164,15.98109 9.27875,7.74395 10.25823,8.78895 8.23789,8.78895 -0.98218,0 -2.38934,-0.7875 -3.12702,-1.75 -1.03789,-1.3542 -1.53119,-1.46297 -2.18106,-0.48092 -0.62416,0.94321 -1.1584,0.68643 -2.08055,-1 -0.68241,-1.24799 -2.45055,-3.15143 -3.92919,-4.22985 -1.62231,-1.1832 -0.61655,0.44528 2.53617,4.10649 6.3074,7.32467 7.67246,8.50986 9.37467,8.13937 0.72039,-0.1568 1.33026,0.28786 1.35526,0.98814 0.025,0.70028 2.97045,3.55974 6.54545,6.35436 C 177.85173,307.51908 184.78926,312 188.12247,312 c 1.10448,0 4.34126,-2.37553 7.19284,-5.27895 10.45774,-10.64786 21.18104,-23.0597 21.04759,-24.36182 -0.0754,-0.73574 0.21111,-1.1225 0.6367,-0.85948 1.07498,0.66438 3.30243,-2.20205 2.5975,-3.34264 -0.31629,-0.51177 0.20747,-1.54398 1.16391,-2.2938 1.57367,-1.2337 1.60851,-1.19694 0.36655,0.38669 -0.75485,0.9625 -1.12299,1.75 -0.8181,1.75 0.30489,0 1.57991,-1.4625 2.83338,-3.25 1.69459,-2.41657 1.81544,-2.87744 0.47127,-1.7972 -1.56908,1.26099 -1.52964,0.95764 0.29875,-2.29765 1.55191,-2.76305 1.84994,-4.22985 1.132,-5.57132 -1.20313,-2.24809 -0.20241,-3.45948 1.61313,-1.95271 1.53874,1.27704 1.80102,-0.84286 0.63483,-5.13112 l -0.67988,-2.5 -0.70429,2.5 c -0.59,2.0943 -0.72508,1.85088 -0.83236,-1.5 -0.0704,-2.2 -0.3581,-8.725 -0.63926,-14.5 -0.45267,-9.29771 -0.27879,-10.90076 1.51854,-14 5.88704,-10.15139 9.0159,-17.30291 10.09583,-23.0757 1.60831,-8.59724 1.71738,-8.9243 2.97623,-8.9243 0.59972,0 0.8615,0.37038 0.58172,0.82307 -0.27978,0.45269 -0.96914,3.68221 -1.53191,7.17671 -1.03678,6.43779 -6.38042,19.02735 -10.06363,23.7098 -1.67208,2.12569 -2.01381,4.05421 -2.01381,11.36458 0,8.09412 0.28198,9.35391 3.49512,15.61514 1.92231,3.74589 3.49731,7.75343 3.5,8.90566 0.011,4.7378 -12.84485,21.26267 -33.18443,42.65504 -8.78367,9.23832 -9.62376,9.62102 -16.07017,7.32069 z M 227.884,266.62756 c -0.11018,-2.02079 -0.14067,-2.02719 -0.60761,-0.12756 -0.27038,1.1 -1.00568,2.675 -1.634,3.5 -0.99355,1.30457 -0.91438,1.32119 0.60761,0.12756 0.9625,-0.75485 1.6978,-2.32985 1.634,-3.5 z M 172.5,217 c -0.33992,-0.55 -0.16803,-1 0.38197,-1 0.55,0 1.27811,0.45 1.61803,1 0.33992,0.55 0.16803,1 -0.38197,1 -0.55,0 -1.27811,-0.45 -1.61803,-1 z m 3.5,-0.46395 c 0,-1.77536 -7.35323,-6.97636 -7.83211,-5.53972 -0.18629,0.55887 -0.80059,0.73068 -1.3651,0.38179 -0.56452,-0.34889 -1.40646,-0.0194 -1.87098,0.73221 -0.65777,1.0643 -1.60564,0.6289 -4.28552,-1.96854 -4.90169,-4.7509 -4.26539,-6.62091 2.28834,-6.72519 4.70794,-0.0749 5.33839,0.1713 6.19278,2.41851 1.13205,2.97751 3.79949,5.13017 5.53281,4.46503 0.6842,-0.26255 1.82806,-0.11264 2.54189,0.33313 0.71384,0.44577 1.92784,0.90573 2.69778,1.02213 0.76994,0.1164 1.73909,0.76045 2.15365,1.43123 1.10988,1.79583 15.03826,0.50073 16.15934,-1.50254 0.46201,-0.82556 1.50311,-1.24657 2.31357,-0.93557 0.81045,0.311 1.47355,0.0673 1.47355,-0.54153 0,-3.35749 2.40556,-5.03418 7.28138,-5.07519 4.53028,-0.0381 5.8242,2.08906 3.10109,5.09807 -3.0697,3.39198 -5.37728,4.24997 -6.71443,2.49652 -1.04045,-1.3644 -1.60497,-1.32212 -5.16804,0.38702 -2.2,1.0553 -4.675,1.94089 -5.5,1.96797 -1.16396,0.0382 -1.21134,0.23239 -0.2115,0.86674 0.70867,0.44963 -1.99133,0.63434 -6,0.41047 -4.00868,-0.22386 -7.716,-0.82363 -8.2385,-1.33281 C 180.0275,214.4166 178.7,214 177.6,214 c -1.55556,0 -1.73333,0.26667 -0.8,1.2 1.46021,1.46021 1.55591,2.8 0.2,2.8 -0.55,0 -1,-0.65878 -1,-1.46395 z m -6.12756,-3.19977 c -1.24448,-1.5086 -1.16266,-1.55194 0.87756,-0.46482 2.32696,1.23991 2.89993,2.12854 1.37244,2.12854 -0.48265,0 -1.49515,-0.74867 -2.25,-1.66372 z m 15.63311,-5.33015 C 183.84878,206.17542 183.83749,206 185.3764,206 c 0.9275,0 1.95284,0.69441 2.27852,1.54313 0.93115,2.42653 -0.15973,2.66152 -2.14937,0.463 z m 8.13282,0.49387 c -0.31658,-0.825 -0.13972,-1.5 0.39301,-1.5 0.53274,0 0.96862,0.675 0.96862,1.5 0,0.825 -0.17686,1.5 -0.39301,1.5 -0.21616,0 -0.65203,-0.675 -0.96862,-1.5 z m -44.53792,-2.29966 c -0.11187,-3.67469 1.8452,-8.10317 4.53999,-10.27317 1.42217,-1.14522 1.33992,-0.71806 -0.4163,2.16212 -1.20374,1.97411 -2.6014,5.34911 -3.10593,7.5 L 149.2009,209.5 149.10045,206.20034 Z M 189.5,208 c 0.33992,-0.55 0.81648,-1 1.05902,-1 0.24254,0 0.44098,0.45 0.44098,1 0,0.55 -0.47656,1 -1.05902,1 -0.58246,0 -0.7809,-0.45 -0.44098,-1 z m 9.57895,-0.58333 c 0.048,-1.16495 0.28494,-1.4019 0.60416,-0.60417 0.28887,0.72187 0.25335,1.58437 -0.0789,1.91667 -0.3323,0.33229 -0.56864,-0.25834 -0.52522,-1.3125 z M 171,206.62244 C 171,205.62507 171.83473,205 173.16667,205 c 1.19166,0 1.97916,0.12734 1.75,0.28297 -0.22917,0.15563 -1.20417,0.88573 -2.16667,1.62244 -1.49798,1.14658 -1.75,1.10583 -1.75,-0.28297 z M 220.75493,205.25 c -0.25964,-1.5125 -0.79745,-3.65 -1.19514,-4.75 -0.71276,-1.97152 -0.70054,-1.97236 0.85857,-0.0589 0.8699,1.06762 1.58164,3.20512 1.58164,4.75 0,3.58303 -0.63495,3.61305 -1.24507,0.0589 z m -92.64006,-3.03536 c -0.99724,-1.86337 -0.93187,-2.34763 0.38513,-2.85302 2.25941,-0.86701 2.97473,0.25942 1.81508,2.85828 l -0.99909,2.23905 -1.20112,-2.24431 z m 113.69587,-7.07651 c 1.48281,-0.94037 5.24207,-12.20428 4.48817,-13.44797 -0.27,-0.44541 -1.1084,0.005 -1.86311,1 -0.88961,1.17334 -1.38338,1.34948 -1.404,0.50082 -0.0178,-0.73271 -0.54077,-0.99445 -1.18787,-0.59452 -0.85091,0.52589 -0.93468,-0.31643 -0.31735,-3.19098 0.4613,-2.14802 0.78578,-7.05548 0.72107,-10.90548 -0.48032,-28.57618 -0.86331,-36.65311 -1.768,-37.2861 -1.12669,-0.7883 -3.71626,-6.2139 -2.96582,-6.2139 0.25903,0 1.588,0.97125 2.95327,2.15834 3.36664,2.92726 4.8011,7.80762 4.4614,15.17866 -0.53013,11.50294 -0.30236,18.15125 0.77641,22.663 0.95904,4.011 1.08786,4.16014 1.18552,1.37244 0.12025,-3.43248 3.10957,-7.11266 3.10957,-3.82822 0,2.69435 0.81701,1.33257 1.48902,-2.48188 0.52165,-2.96097 0.405,-3.21928 -0.94705,-2.09717 C 249.26044,159.02875 249,158.97086 249,157.62244 249,156.7301 249.36033,156 249.80073,156 c 0.44041,0 1.7797,-2.01499 2.9762,-4.47775 1.45671,-2.99835 2.64587,-4.29724 3.59926,-3.93139 1.06297,0.4079 1.42381,-0.332 1.42381,-2.91949 0,-1.90623 0.26993,-4.31634 0.59984,-5.3558 0.65718,-2.07059 4.57105,-2.91554 4.6479,-1.00342 0.0263,0.65332 0.72921,-0.75735 1.56213,-3.13482 1.25565,-3.5841 1.29021,-4.59934 0.20226,-5.94196 -0.74092,-0.91436 -0.81358,-1.32056 -0.16691,-0.93307 0.62986,0.37742 1.41736,-0.023 1.75,-0.88983 0.94694,-2.46771 0.70908,-7.22998 -0.39522,-7.91247 -0.55,-0.33992 -1.00689,-1.60398 -1.01531,-2.80902 -0.0113,-1.61031 -0.24316,-1.8314 -0.875,-0.83422 -0.66131,1.04367 -1.03348,1.07557 -1.61281,0.1382 -0.42048,-0.68036 -0.14443,-1.6041 0.625,-2.09145 0.80732,-0.51135 0.90869,-0.87923 0.24475,-0.8882 -0.62335,-0.008 -1.35992,-0.88164 -1.63681,-1.94049 -0.35318,-1.35055 -0.0895,-1.76634 0.88336,-1.39301 1.76494,0.67726 1.79979,-1.12598 0.0555,-2.87028 -0.73223,-0.73224 -1.6536,-2.67688 -2.04749,-4.32143 -0.39389,-1.64456 -0.95011,-3.7776 -1.23606,-4.7401 -0.36025,-1.212621 0.0382,-1.754702 1.29749,-1.765313 1.322,-0.01114 1.46743,-0.237369 0.53352,-0.829949 -0.70776,-0.449085 -0.9963,-1.564039 -0.64301,-2.484688 C 260.94597,91.698426 260.72635,91 260.04797,91 c -0.6413,0 -0.84063,0.526472 -0.44294,1.169939 0.50798,0.821933 0.15372,0.941921 -1.19099,0.40338 -1.05272,-0.421607 -2.58904,-0.91365 -3.41404,-1.093427 -0.825,-0.179778 -1.62833,-0.3613 -1.78518,-0.403381 -0.15685,-0.04208 0.19875,-0.980764 0.79024,-2.085962 0.91571,-1.711023 0.69817,-2.152884 -1.46482,-2.975249 -1.69576,-0.644726 -2.53853,-1.722021 -2.5351,-3.240549 0.005,-2.088021 -1.25452,-3.626252 -11.3609,-13.877935 C 236.87398,67.101093 234.74729,66 233.04923,66 229.74571,66 227.5237,63.559042 227.13226,59.5 226.85282,56.602198 223,51.266946 223,53.777778 c 0,1.802914 -7.48101,1.552489 -9.02006,-0.301944 -1.72333,-2.076495 -2.39949,-1.128281 -1.02578,1.43852 C 213.56808,56.061459 213.65332,57 213.14359,57 c -0.50972,0 -1.1865,-1.0125 -1.50393,-2.25 -0.74647,-2.910039 -5.47448,-7.970124 -6.72495,-7.197288 -0.53034,0.327771 -0.84061,0.110358 -0.68949,-0.483141 0.15113,-0.593498 -1.13534,-1.987975 -2.85883,-3.098836 -2.82378,-1.820055 -3.19567,-1.858012 -3.76134,-0.383901 -0.45864,1.19519 -0.20662,1.474252 0.93555,1.035961 0.89886,-0.344928 1.30361,-0.179743 0.95232,0.388659 -1.00483,1.625857 -3.60468,1.121793 -3.28676,-0.637244 0.21893,-1.211295 -0.66222,-1.728338 -3.45616,-2.02802 -2.29588,-0.246259 -3.75,0.02253 -3.75,0.693177 0,0.634692 0.94632,0.860654 2.25,0.537252 1.2375,-0.306987 1.6875,-0.299811 1,0.01595 -0.6875,0.315757 -1.25,1.53673 -1.25,2.713276 0,2.122999 -0.0121,2.121861 -1.60375,-0.150508 -0.94054,-1.342805 -2.21402,-2.0555 -3.07947,-1.723398 -0.81164,0.311455 -2.51344,0.305827 -3.78179,-0.01251 -1.67292,-0.419878 -2.1682,-1.106028 -1.8039,-2.499108 C 181.10616,40.486039 180.71247,40 179.17565,40 c -1.13169,0 -2.33573,-0.45 -2.67565,-1 -0.33992,-0.55 -1.95005,-1 -3.57807,-1 -2.7079,0 -2.90893,0.234243 -2.3601,2.75 0.46767,2.143688 0.36004,2.419284 -0.48816,1.25 -0.91321,-1.258901 -1.81908,-0.73652 -5.63588,3.25 -2.50128,2.6125 -4.74142,4.75 -4.97809,4.75 -0.23667,0 0.4614,-1.4625 1.55126,-3.25 2.65974,-4.362295 2.51893,-4.83068 -1.07559,-3.577626 C 157.05634,44.17601 153.4816,43.946547 148.25,42.422289 146.86861,42.019811 146,42.19781 146,42.883369 146,43.497516 147.125,44 148.5,44 c 1.375,0 2.5,0.502484 2.5,1.116631 0,0.713182 -0.81295,0.846091 -2.25,0.367854 -5.93829,-1.976207 -10.92476,0.09135 -12.16812,5.04531 -0.44831,1.786192 -1.5305,2.557542 -4.32327,3.081469 -2.93213,0.550069 -3.31441,0.842992 -1.7955,1.375797 1.82056,0.638617 1.80547,0.709442 -0.26666,1.251316 C 128.81683,56.599156 128,57.591347 128,58.90638 128,60.057871 127.49752,61 126.88337,61 c -0.62456,0 -0.88599,-0.88196 -0.59326,-2.00138 0.28785,-1.100759 0.16907,-1.782409 -0.26397,-1.514777 -0.43303,0.267631 -1.00106,1.604634 -1.26228,2.971117 -0.26122,1.366484 -0.0899,2.246576 0.3806,1.955761 2.1021,-1.29917 0.56651,1.51621 -2.14446,3.931695 -1.65,1.470157 -3,3.599866 -3,4.732686 0,1.608298 -0.44067,1.919809 -2.01083,1.421459 -1.65055,-0.523862 -2.12163,-0.08427 -2.62917,2.453422 -0.34008,1.7004 -1.01754,3.338366 -1.50547,3.639925 -0.48794,0.301559 -0.634,0.957894 -0.3246,1.458524 0.30941,0.500629 0.0643,1.841161 -0.54459,2.978959 -0.8028,1.500049 -1.70891,1.90006 -3.29624,1.45516 -1.79369,-0.502737 -1.91816,-0.407353 -0.6891,0.528073 1.1321,0.861631 1.19341,1.266039 0.25,1.64884 C 108.5625,86.938426 108,87.804167 108,88.583333 108,89.3625 107.52765,90 106.95034,90 c -0.6945,0 -0.81426,2.080624 -0.35394,6.149285 0.40591,3.587776 0.3203,5.917265 -0.20551,5.592295 -0.50372,-0.31131 -0.8171,2.04875 -0.7105,5.35072 0.1101,3.41015 -0.23328,5.9077 -0.81222,5.9077 -0.55162,0 -0.76762,-0.7875 -0.47999,-1.75 0.28762,-0.9625 0.13901,-3.325 -0.33025,-5.25 l -0.85321,-3.5 -0.22023,4.5 c -0.48173,9.84306 -0.45739,10.79171 0.26551,10.34521 0.4125,-0.25479 0.75,-1.11169 0.75,-1.90423 0,-0.79254 0.66772,-1.44098 1.48382,-1.44098 1.27999,0 1.25735,0.47492 -0.16479,3.45717 -0.90673,1.90145 -1.98217,3.25102 -2.38985,2.99906 -0.95418,-0.58972 -2.11536,7.84244 -1.80291,13.09217 0.13253,2.22662 -0.0617,4.53813 -0.43165,5.13669 -0.36993,0.59856 -0.0216,1.62853 0.77395,2.28882 0.93272,0.7741 1.27454,2.32396 0.9623,4.36331 -0.42218,2.75749 -0.3568,2.87446 0.51022,0.91278 1.01728,-2.30163 3.05891,-3.09654 3.05891,-1.19098 0,0.58246 -0.52089,0.73709 -1.15752,0.34363 -0.78938,-0.48787 -0.98217,-0.0448 -0.60616,1.39303 0.30325,1.15963 0.067,2.26986 -0.52489,2.46718 -1.70544,0.56848 1.8006,8.26433 3.69018,8.10004 0.86728,-0.0754 1.35584,0.22054 1.08569,0.65765 -0.27015,0.43711 -0.0688,1.8488 0.44737,3.1371 0.87788,2.19092 0.94266,2.13224 1.00194,-0.90765 C 109.97148,158.4625 110.45,157 111,157 c 0.55,0 1,-0.58899 1,-1.30887 0,-0.71988 0.58999,-2.11573 1.3111,-3.1019 1.15529,-1.57997 1.26193,-1.3719 0.89735,1.75094 -0.57196,4.8993 0.28726,6.78512 1.66749,3.65983 l 1.10409,-2.5 -0.096,3 c -0.14559,4.55081 -0.007,4.84675 1.6344,3.48468 3.40456,-2.82553 5.49129,-11.16132 5.88313,-23.50113 0.0737,-2.32045 0.68457,-4.88243 1.35752,-5.69328 0.67295,-0.81086 0.97518,-1.72266 0.67162,-2.02622 -0.30356,-0.30356 0.59174,-1.6956 1.98956,-3.09342 1.44288,-1.44288 2.80753,-2.11104 3.15693,-1.54571 0.68831,1.11372 -1.4489,7.02365 -2.89764,8.01271 -0.51369,0.3507 -1.11662,4.97304 -1.33984,10.27186 -0.22322,5.29883 -0.85564,10.81726 -1.40538,12.26319 -0.5714,1.5029 -0.70397,5.24144 -0.30949,8.72814 0.77823,6.87864 0.75882,7.09918 -0.62486,7.09918 -0.55,0 -0.955,0.45 -0.9,1 0.055,0.55 0.505,0.8875 1,0.75 1.6195,-0.44986 0.9428,1.5196 -0.74462,2.16712 -0.92477,0.35487 -2.45671,-0.10383 -3.5,-1.048 C 119.29156,173.95389 119,173.92487 119,175.1845 c 0,0.82196 1.125,2.00705 2.5,2.63355 2.6932,1.2271 3.38879,4.62691 1.12442,5.49583 -0.75657,0.29032 -2.608,-0.11153 -4.1143,-0.89301 C 117.00381,181.63939 115.20292,181 114.50814,181 c -2.59654,0 -3.49056,-2.44731 -2.30508,-6.30996 0.62287,-2.02952 1.507,-3.69004 1.96472,-3.69004 1.32947,0 0.90216,-3.32343 -0.69958,-5.44113 -1.41368,-1.86904 -1.4682,-1.84574 -1.4682,0.62756 0,3.32047 -2.73462,5.84524 -4.0609,3.74927 -0.49966,-0.78964 -0.91537,-1.98451 -0.92379,-2.65528 -0.008,-0.67077 -0.97825,-2.92077 -2.15518,-5 -1.17693,-2.07923 -2.44681,-4.90542 -2.82195,-6.28042 -0.37514,-1.375 -1.0997,-2.275 -1.61013,-2 -0.510426,0.275 -0.81555,0.8375 -0.67805,1.25 0.1375,0.4125 -0.144723,0.75 -0.627163,0.75 -0.482439,0 -0.648916,-2.025 -0.369947,-4.5 0.350584,-3.11038 0.137439,-4.5 -0.690225,-4.5 -0.762648,0 -0.967635,0.81698 -0.564546,2.25 0.454839,1.617 0.361623,1.8575 -0.331335,0.85485 -0.824886,-1.19353 -1.028726,-1.19353 -1.410527,0 -0.245463,0.76733 -0.306531,0.27015 -0.135706,-1.10485 0.657253,-5.29033 0.606532,-11.57468 -0.107125,-13.27298 -0.409771,-0.97513 -0.230962,-3.67513 0.397352,-6 0.628315,-2.32486 1.34,-5.91528 1.581522,-7.9787 0.241523,-2.06343 0.873161,-4.56267 1.403641,-5.55388 0.561866,-1.04986 0.600058,-2.3919 0.09149,-3.21478 -0.52418,-0.84814 -0.445659,-1.92752 0.196508,-2.70129 0.678878,-0.818 0.801471,-3.20441 0.335637,-6.53354 -1.731147,-12.371786 0.154255,-19.396841 5.953464,-22.182772 1.97719,-0.949837 4.02731,-3.388165 5.91143,-7.030778 2.68705,-5.194971 2.7726,-5.700238 1.25,-7.382697 -2.28758,-2.527742 -2.03492,-5.421491 0.61553,-7.04969 2.18974,-1.345185 2.20313,-1.329432 0.5,0.588194 -2.17519,2.44913 -2.32508,4.030851 -0.17857,1.884342 0.86428,-0.864286 2.32678,-1.57832 3.25,-1.586742 C 118.27065,60.971467 118.29505,60.836927 117,60 c -1.16887,-0.755385 -0.89294,-0.972755 1.25,-0.984687 1.5125,-0.0084 2.75,-0.444858 2.75,-0.969858 0,-1.787754 4.89385,-5.855317 8.4613,-7.032683 1.95641,-0.645675 3.34397,-1.518827 3.08347,-1.940338 -0.53595,-0.867177 3.63096,-4.974661 7.59218,-7.483919 1.45032,-0.918715 5.41265,-1.87442 8.80516,-2.123789 3.39252,-0.24937 7.04339,-0.92178 8.11305,-1.494246 C 158.2238,37.345042 159,37.309523 159,37.88148 c 0,0.523518 -0.5625,1.178824 -1.25,1.456236 -0.97906,0.395059 -0.97226,0.521498 0.0314,0.583334 0.70477,0.04342 1.54041,-0.596053 1.85699,-1.421053 0.31659,-0.825 0.97746,-1.5 1.46862,-1.5 0.49115,0 0.89301,0.675 0.89301,1.5 0,1.849073 0.94238,1.858843 3.35014,0.03473 1.01757,-0.770913 1.55352,-1.881602 1.19098,-2.468196 -0.41881,-0.677656 0.72969,-1.109714 3.14986,-1.184956 6.7319,-0.209293 10.81085,0.561986 13.99062,2.645456 1.94277,1.272952 2.75284,1.388067 3.31919,0.471679 0.53552,-0.866485 0.94431,-0.896569 1.43323,-0.105477 C 188.81023,38.501957 189.61122,39 190.214,39 c 0.60279,0 0.28149,-0.9 -0.714,-2 -2.08852,-2.307784 -0.88093,-2.655545 2.06242,-0.593939 C 193.99681,38.111176 200,39.183167 200,37.912763 200,37.410743 200.45,37 201,37 c 0.55,0 1,0.574792 1,1.277316 0,0.702523 1.32369,2.438833 2.94153,3.858466 2.12496,1.864614 3.24446,2.278225 4.03276,1.489931 0.78829,-0.788293 1.2533,-0.471399 1.67509,1.141534 0.84368,3.226232 1.96778,2.7796 5.07707,-2.017247 1.51516,-2.3375 3.16952,-4.546662 3.67637,-4.909249 1.17943,-0.843742 3.59718,1.544068 3.59718,3.552637 0,0.844934 0.9,2.01791 2,2.606612 1.36515,0.730609 2,2.093823 2,4.294637 0,2.10239 0.67161,3.643694 1.93019,4.429692 1.0616,0.662982 2.0741,2.421711 2.25,3.908286 0.22341,1.88818 1.41918,3.330489 3.96718,4.785125 4.39956,2.511681 11.11484,8.526609 13.38141,11.985846 0.90758,1.385134 2.46366,2.776627 3.45796,3.092207 1.20412,0.38217 1.63751,1.225059 1.29782,2.52405 -0.2805,1.072648 -0.20214,2.744494 0.17414,3.715213 0.64099,1.653613 0.77425,1.6425 2.11272,-0.176186 1.01833,-1.383684 1.43298,-1.527272 1.44389,-0.5 0.0129,1.215431 0.16713,1.206211 0.98469,-0.05887 0.53316,-0.825 0.92302,-2.85 0.86637,-4.5 l -0.103,-3 -0.76337,3 -0.76337,3 -0.11832,-2.75 C 257.05324,76.2375 256.1,74.1 255,73 c -1.1,-1.1 -2,-2.45 -2,-3 0,-1.598051 3.62658,-1.154866 5.10254,0.623554 1.43603,1.730306 2.99217,13.553013 1.6769,12.740131 C 259.35075,83.098739 259,83.583524 259,84.440983 259,85.298442 259.69887,86 260.55305,86 c 2.65915,0 8.83353,4.843264 11.16624,8.758951 5.64078,9.468569 5.54732,9.185209 3.87243,11.741399 -0.84614,1.29138 -2.45043,2.63742 -3.56508,2.99119 -1.11465,0.35378 -2.02664,1.11106 -2.02664,1.68284 0,0.57178 -0.60474,0.80754 -1.34388,0.5239 -0.96255,-0.36936 -1.21322,0.16777 -0.88342,1.89302 0.26446,1.38344 1.15572,2.40218 2.09388,2.39339 1.39549,-0.0131 1.41914,-0.15083 0.16238,-0.94563 -0.80907,-0.51167 -1.13907,-1.26228 -0.73333,-1.66802 0.40574,-0.40574 1.19496,-0.28045 1.75382,0.27841 1.24866,1.24866 0.12759,4.578 -1.254,3.72413 -0.54724,-0.33821 -0.45684,0.3906 0.2009,1.61959 0.65773,1.22899 0.96156,3.6458 0.67518,5.37068 C 268.76006,135.87657 266.0536,143 263.59095,143 c -1.75593,0 -2.67899,3.51196 -1.28852,4.90243 0.76144,0.76144 0.48061,1.72536 -0.97143,3.33433 -3.06885,3.40049 -4.87695,7.29387 -8.24929,17.76324 -3.64942,11.32951 -7.07304,21.64726 -8.21252,24.75 -0.45447,1.2375 -1.62346,2.24311 -2.59775,2.23469 -1.32759,-0.0115 -1.44302,-0.22359 -0.4607,-0.84656 z M 121.54112,180.06653 C 121.17858,179.47994 120.14752,179 119.24985,179 c -1.36496,0 -1.31464,0.23214 0.30745,1.41824 2.09456,1.53158 3.04375,1.3633 1.98382,-0.35171 z m 124.41992,-2.25509 C 247.08247,176.60773 248,175.25392 248,174.80296 c 0,-1.47078 -3.8586,1.54834 -4.34217,3.39748 -0.61286,2.34361 -0.17346,2.2694 2.30321,-0.389 z m -129.17803,-1.46033 c 0.12058,-1.45689 0.66482,-3.18579 1.20943,-3.84201 0.93876,-1.13112 0.41251,-2.5091 -0.95822,-2.5091 -1.02622,0 -3.2158,6.89718 -2.53782,7.99417 1.09625,1.77378 2.06121,1.0804 2.28661,-1.64306 z M 245.66228,170.75 c -0.27741,-0.6875 -0.50439,-0.125 -0.50439,1.25 0,1.375 0.22698,1.9375 0.50439,1.25 0.27741,-0.6875 0.27741,-1.8125 0,-2.5 z m 4.63341,-3.58258 c -0.66056,-2.51367 -0.74072,-2.43686 -1.39062,1.33258 -0.37931,2.2 -0.43902,4.41444 -0.13268,4.92097 0.99229,1.64078 2.24567,-3.50467 1.5233,-6.25355 z m -129.55617,1.51753 c -0.68174,-1.46814 -1.58858,-2.67286 -2.0152,-2.67715 -0.42662,-0.004 -0.0559,1.38402 0.82374,3.08513 1.92688,3.72618 2.94869,3.37629 1.19146,-0.40798 z M 125,169.64922 c 0,-0.74292 -0.55227,-2.88042 -1.22726,-4.75 L 122.54548,161.5 121.97046,165 c -0.55928,3.40421 0.37174,6 2.15198,6 C 124.6051,171 125,170.39215 125,169.64922 Z M 255.66228,151.75 c -0.27741,-0.6875 -0.50439,-0.125 -0.50439,1.25 0,1.375 0.22698,1.9375 0.50439,1.25 0.27741,-0.6875 0.27741,-1.8125 0,-2.5 z M 98.683114,142.8125 c -0.319226,-0.79773 -0.556183,-0.56078 -0.604167,0.60417 -0.04342,1.05416 0.192928,1.64479 0.52522,1.3125 0.332291,-0.3323 0.367818,-1.1948 0.07895,-1.91667 z M 273.80967,107.13879 c 1.57042,-0.99594 -1.98357,-3.64236 -6.36994,-4.74327 -2.35327,-0.59064 -2.66891,-0.43514 -2.10415,1.03659 0.36543,0.95231 0.66442,2.14466 0.66442,2.64968 0,0.50501 0.47656,0.91821 1.05902,0.91821 0.58246,0 0.85064,-0.3375 0.59596,-0.75 -0.25469,-0.4125 0.64937,-0.8168 2.009,-0.89845 1.74171,-0.10459 2.31351,0.26471 1.93542,1.25 -0.60242,1.56991 0.25379,1.77802 2.21027,0.53724 z m -2.74039,-7.153126 c -2.56868,-2.196065 -4.05096,-2.777383 -5.89915,-2.313516 -1.86793,0.46882 -2.27292,0.303195 -1.66477,-0.680813 0.55022,-0.890275 0.41209,-1.058353 -0.43798,-0.532976 -1.80734,1.116996 0.054,2.581545 4.04876,3.185634 1.86112,0.28144 4.04279,1.151677 4.84815,1.933857 0.80535,0.78218 1.70535,1.40386 2,1.38151 0.29464,-0.0224 -1.00811,-1.36052 -2.89501,-2.973696 z M 104.56474,98.506573 c 0.36046,-1.921385 0.3852,-4.569895 0.055,-5.885577 -0.37277,-1.48525 -0.0609,-2.839931 0.82277,-3.57327 1.42979,-1.186614 1.79501,-5.312544 0.3936,-4.446423 -0.41181,0.254511 -0.50849,1.088824 -0.21486,1.85403 0.29744,0.775115 -0.37587,1.878173 -1.52032,2.490663 -1.73748,0.929871 -2.04124,2.020995 -1.97007,7.076692 0.0928,6.592312 1.41082,7.937402 2.4339,2.483885 z M 269.75,94.75 c -0.22917,-0.6875 -1.05417,-1.25 -1.83333,-1.25 -0.77917,0 -1.47292,-0.5625 -1.54167,-1.25 -0.22149,-2.214891 -0.3573,-2.378976 -1.42356,-1.719989 -0.72606,0.448732 -0.71323,1.052094 0.0417,1.961771 0.59966,0.722549 0.73401,1.508734 0.29856,1.747077 -0.43546,0.238343 -0.24365,0.301757 0.42623,0.14092 0.66989,-0.160837 1.48395,0.137916 1.80902,0.663895 0.87009,1.407835 2.70919,1.164878 2.22301,-0.293674 z M 261,89.116577 c 0,-1.518536 -4.8545,-1.938116 -5.41851,-0.468328 C 255.21748,89.596841 255.94816,90 258.03138,90 259.66412,90 261,89.60246 261,89.116577 Z M 116.60417,62.270833 c -1.01652,-1.016515 -1.85525,0.513892 -1.02122,1.863382 0.63003,1.019417 0.86558,1.020206 1.2043,0.004 0.2316,-0.694785 0.14921,-1.535121 -0.18308,-1.867413 z m 4.32194,1.318195 c 0.90221,-1.087087 0.87292,-1.582985 -0.12755,-2.160326 -0.71421,-0.412144 -0.96496,-0.38111 -0.55724,0.06896 0.40773,0.450074 0.24013,1.422221 -0.37244,2.160326 C 119.25631,64.396096 118.98011,65 119.25511,65 c 0.275,0 1.02695,-0.634938 1.671,-1.410972 z m 99.05877,-12.598374 c -0.91446,-0.565168 -0.96195,-1.492142 -0.18571,-3.625 L 220.84211,44.5 l 0.0789,2.75 c 0.0884,3.078199 0.73865,3.323076 3.42315,1.28907 1.7822,-1.35034 1.77526,-1.456363 -0.20647,-3.153172 -1.12788,-0.965716 -2.71416,-1.853225 -3.52507,-1.972242 -1.60037,-0.234884 -2.96585,2.205848 -2.05689,3.676586 C 218.86502,47.590609 218.58899,48 217.94239,48 c -0.68332,0 -0.95663,-0.837545 -0.65264,-2 0.74991,-2.86765 0.003,-2.466357 -1.76204,0.946408 -1.47866,2.859419 -1.44251,2.987255 1.22432,4.329881 2.75495,1.386987 5.54093,1.140835 3.23285,-0.285635 z M 199,188.17319 c 0,-0.45474 -1.39408,-0.6222 -3.09795,-0.37212 -2.61014,0.38308 -3.04155,0.15898 -2.73979,-1.42319 0.50373,-2.64105 4.44617,-2.97774 5.98652,-0.51126 0.9543,1.52808 1.66549,1.76796 3.04798,1.02808 C 203.27944,186.31527 204,186.30053 204,186.85783 204,187.78002 201.67539,189 199.91821,189 199.4132,189 199,188.62794 199,188.17319 Z m -21.79174,-0.84938 C 175.44509,186.61635 177.60781,184 179.95578,184 c 2.24157,0 3.03234,0.86738 2.36833,2.59777 -0.53753,1.40077 -2.67737,1.70445 -5.11585,0.72604 z M 113,184.7128 c 0,-0.70795 0.9,-1.35499 2,-1.43785 1.1,-0.0829 2,0.29794 2,0.84622 0,0.54827 -0.45,0.71875 -1,0.37883 -0.55,-0.33992 -1,-0.14148 -1,0.44098 0,0.58246 -0.45,1.05902 -1,1.05902 -0.55,0 -1,-0.57924 -1,-1.2872 z m 42.67395,-24.37218 c -0.43141,-0.43142 -3.73475,-0.88475 -7.34074,-1.00741 -3.606,-0.12267 -6.74174,-0.40841 -6.96832,-0.63499 -1.00954,-1.00954 1.03263,-3.62024 3.69426,-4.72272 1.69574,-0.7024 2.6445,-1.68201 2.26782,-2.34156 -0.35619,-0.62367 -0.29131,-0.81227 0.14419,-0.41912 1.14378,1.03256 4.52884,-1.02291 4.52884,-2.75 0,-0.80565 0.43588,-1.46482 0.96862,-1.46482 0.53273,0 0.68603,0.7364 0.34065,1.63645 -0.40206,1.04773 -0.18391,1.48843 0.60638,1.225 0.67889,-0.2263 1.16217,-0.79989 1.07394,-1.27465 -0.80523,-4.33311 15.7518,-2.30907 17.45678,2.13403 0.98292,2.56145 -0.2956,2.76944 -2.76476,0.44978 C 168.41083,149.97677 166.86416,149 166.24457,149 c -2.23291,0 -2.35239,2.09211 -0.21818,3.82028 1.98811,1.60988 2.03658,1.88257 0.55339,3.11351 -1.41688,1.17591 -1.55027,1.10628 -1.03902,-0.54235 0.3226,-1.04029 -0.13147,-0.65394 -1.00904,0.85856 -1.15795,1.99573 -2.38682,2.75 -4.48032,2.75 -1.58661,0 -3.04411,0.47812 -3.2389,1.0625 -0.19479,0.58437 -0.70714,0.70953 -1.13855,0.27812 z m -1.94478,-2.94479 c -0.3323,-0.33229 -1.1948,-0.36781 -1.91667,-0.0789 -0.79773,0.31922 -0.56078,0.55618 0.60417,0.60416 1.05416,0.0434 1.64479,-0.19293 1.3125,-0.52522 z M 163,153.94098 c 0,-1.17564 -0.44782,-1.78224 -1.0438,-1.41391 -0.5741,0.35481 -1.65904,0.13452 -2.41098,-0.48954 -0.93983,-0.77999 -1.56972,-0.8069 -2.01521,-0.0861 -0.35642,0.57671 0.0535,1.04856 0.91097,1.04856 0.85746,0 1.55902,0.675 1.55902,1.5 0,0.825 0.675,1.5 1.5,1.5 0.84766,0 1.5,-0.89545 1.5,-2.05902 z m 1.49328,-4.9301 C 164.87563,148.39222 163.52025,148 161,148 c -2.26492,0 -3.90069,0.35167 -3.63504,0.7815 0.73729,1.19296 6.41978,1.37582 7.12832,0.22938 z m 4.02223,9.01422 c -0.30147,-0.4878 -0.11045,-1.15741 0.4245,-1.48803 0.53496,-0.33061 0.71767,-1.26557 0.40604,-2.07767 -0.45268,-1.17964 -0.092,-1.30098 1.79367,-0.60342 1.29816,0.48022 2.36028,1.44503 2.36028,2.14402 0,1.55048 -4.21856,3.2644 -4.98449,2.0251 z M 213.25,157.26779 C 210.9125,157.05726 209,156.46088 209,155.9425 209,155.42413 208.29844,155 207.44098,155 c -0.85746,0 -1.2809,0.45 -0.94098,1 0.35956,0.58179 -0.63661,1 -2.38197,1 -3.72176,0 -5.03377,-1.85723 -2.57968,-3.6517 2.47419,-1.80917 4.01045,-1.7145 2.46165,0.1517 -0.68469,0.825 -0.86662,1.5 -0.40428,1.5 0.96406,0 5.40428,-4.95016 5.40428,-6.02495 0,-0.39263 2.5875,-0.65064 5.75,-0.57337 4.15522,0.10153 7.41275,0.96317 11.74507,3.10666 3.64171,1.8018 5.33062,3.09413 4.30241,3.29215 -0.93097,0.17928 -2.58666,-0.15248 -3.67933,-0.73726 -1.09267,-0.58478 -2.35375,-1.0268 -2.80241,-0.98228 -0.44866,0.0445 0.98426,0.93272 3.18426,1.97377 2.2,1.04106 3.775,1.94348 3.5,2.00538 -0.275,0.0619 -2.72656,0.24528 -5.4479,0.40752 -4.41898,0.26343 -4.74597,0.14731 -3.05887,-1.08633 1.52971,-1.11855 1.59065,-1.38129 0.32034,-1.38129 -0.86277,0 -2.12888,0.675 -2.81357,1.5 -0.68469,0.825 -1.52729,1.42138 -1.87244,1.32529 -0.34516,-0.0961 -2.54006,-0.34696 -4.87756,-0.5575 z m 4.39508,-4.51779 c -0.45308,-2.97762 -3.61315,-3.58809 -4.33259,-0.83697 -0.30016,1.14783 -0.96983,2.08697 -1.48814,2.08697 -0.51831,0 -0.6213,-0.51953 -0.22886,-1.15451 0.44208,-0.7153 0.27432,-0.88306 -0.44098,-0.44098 -2.32353,1.43602 -1.05517,2.59549 2.83922,2.59549 3.57641,0 3.95795,-0.2351 3.65135,-2.25 z M 214.5,152 c 0.33992,-0.55 0.81648,-1 1.05902,-1 0.24254,0 0.44098,0.45 0.44098,1 0,0.55 -0.47656,1 -1.05902,1 -0.58246,0 -0.7809,-0.45 -0.44098,-1 z m 8,-1 c -0.33992,-0.55 -1.15398,-0.99311 -1.80902,-0.98469 -0.71561,0.009 -0.59227,0.40223 0.30902,0.98469 1.92112,1.24153 2.2673,1.24153 1.5,0 z m -80.44528,1.43406 c 1.33383,-1.60716 6.21741,-4.437 7.64562,-4.43032 0.43981,0.002 -0.61374,0.86558 -2.34123,1.91895 -1.72749,1.05336 -3.44155,2.40168 -3.80902,2.99626 -0.36747,0.59458 -1.14667,1.08105 -1.73155,1.08105 -0.65069,0 -0.55902,-0.60778 0.23618,-1.56594 z m 84.87085,-2.42126 c -5.4906,-4.10303 -14.64182,-4.55895 -22.42269,-1.1171 -5.22582,2.31163 -5.99254,1.43646 -1.25288,-1.43009 4.8706,-2.94575 16.64819,-2.75445 23,0.3736 2.6125,1.28656 4.75,2.74906 4.75,3.25 0,1.37632 -1.22549,1.05257 -4.07443,-1.07641 z M 246,149.11803 c 0,-1.1 0.45,-2.27811 1,-2.61803 0.55,-0.33992 1,0.28197 1,1.38197 0,1.1 -0.45,2.27811 -1,2.61803 -0.55,0.33992 -1,-0.28197 -1,-1.38197 z m -136.49545,-1.38076 c -0.41148,-0.99592 -0.19135,-2.40972 0.50602,-3.25 1.12755,-1.35863 0.6916,-1.91393 -1.26057,-1.60569 -0.4125,0.0651 -0.75689,-0.66908 -0.76531,-1.63158 -0.0131,-1.49555 -0.15626,-1.5319 -0.98469,-0.25 -0.80271,1.2421 -0.96937,1.15614 -0.96937,-0.5 0,-4.37237 1.54401,-4.64728 4.34438,-0.77352 2.5318,3.50226 2.68011,3.57444 2.06316,1.00411 -0.80897,-3.37036 1.12847,-8.4283 3.76999,-9.84199 1.85514,-0.99284 1.86721,-0.93327 0.29669,1.46366 -0.90044,1.37424 -1.82437,4.21967 -2.05318,6.32318 l -0.41602,3.82456 1.51411,-2.75 c 0.83276,-1.5125 1.93457,-2.75 2.44845,-2.75 0.51389,0 0.0284,1.53541 -1.0788,3.41202 -1.30056,2.20427 -1.64258,3.64103 -0.96628,4.05902 0.57578,0.35584 1.04687,1.14018 1.04687,1.74296 0,0.60279 -0.96738,0.23873 -2.14974,-0.80901 l -2.14973,-1.90499 0.71262,2.92463 c 0.60822,2.49618 0.4979,2.74644 -0.75302,1.70826 -1.15699,-0.96021 -1.56689,-0.94434 -1.94646,0.0754 -0.33994,0.91327 -0.69421,0.77527 -1.20912,-0.47099 z m 123.78441,-1.56354 c -5.08978,-5.19594 -20.37396,-5.87475 -34.63768,-1.53833 -1.72289,0.52378 -1.7148,0.42812 0.11878,-1.40546 3.0514,-3.0514 11.30445,-4.59467 20.47931,-3.82952 8.62941,0.71967 11.91266,1.97737 15.67494,6.00457 2.7142,2.90531 1.16905,3.63165 -1.63535,0.76874 z M 135,146.16616 c 0,-0.56726 0.9,-1.31703 2,-1.66616 2.18055,-0.69208 2.77142,-3.47781 0.75,-3.53596 -1.30793,-0.0376 3.30147,-4.25588 6.75,-6.1772 1.80335,-1.00472 1.86308,-0.94832 0.6075,0.57361 -1.79461,2.17529 -0.85097,3.10781 1.74111,1.72057 1.11095,-0.59456 2.97605,-1.08102 4.14467,-1.08102 1.16861,0 1.86927,-0.41338 1.55701,-0.91863 -0.68582,-1.10968 3.79261,-2.05678 7.99867,-1.69157 5.24912,0.45579 18.45104,5.2271 18.45104,6.6684 0,0.39613 -0.81996,1.73284 -1.82213,2.97046 -1.81828,2.24548 -1.8333,2.24652 -7.1184,0.49109 -5.29931,-1.76014 -5.91377,-1.74712 -18.55947,0.39345 -2.75,0.4655 -6.00834,0.46318 -7.24075,-0.005 -1.62283,-0.6167 -3.20848,-0.28054 -5.75,1.21899 C 136.57916,146.26582 135,146.73343 135,146.16616 Z m 40.69563,-5.77873 C 175.09607,139.86493 162.52088,137 160.82696,137 c -1.10632,0 -3.15567,0.9 -4.55409,2 -3.07173,2.41622 -2.5525,2.49581 2.6644,0.40842 3.39084,-1.35674 4.53731,-1.40061 7.77024,-0.29728 2.08587,0.71186 4.36101,1.18196 5.05587,1.04467 0.69486,-0.1373 1.54499,0.48421 1.88917,1.38113 0.4903,1.2777 0.80037,1.34825 1.43224,0.32587 0.44356,-0.71769 0.71843,-1.38161 0.61084,-1.47538 z m -25.45186,0.94821 C 148.15159,140.49216 149.92768,139 153.02383,139 c 1.81067,0 3.28141,-0.70182 3.90242,-1.86219 0.96726,-1.80735 0.79895,-1.80589 -5.71482,0.0495 -11.43906,3.25835 -11.09055,3.09255 -8.21143,3.90652 2.84441,0.80416 9.1617,1.01503 7.24377,0.24179 z m 99.3185,3.76511 c -1.00477,-1.62575 -0.25995,-9.10677 1.01177,-10.16219 0.97214,-0.80681 1.13121,-0.0913 0.7257,3.26406 -0.28565,2.36356 -0.56638,5.08488 -0.62384,6.04738 -0.11824,1.98058 -0.32007,2.13476 -1.11363,0.85075 z M 229.5,139.52267 c -2.46129,-2.12137 -3.40227,-3.46202 -2.44617,-3.48512 0.85461,-0.0207 3.08039,1.53745 4.94617,3.46245 4.35668,4.49496 2.70627,4.50992 -2.5,0.0227 z m -32.22069,-0.86059 c 0.18329,-0.54989 2.01043,-1.58044 4.0603,-2.29013 4.4924,-1.5553 17.94207,-2.63673 17.16549,-1.3802 -0.30094,0.48693 0.2498,1.39036 1.22387,2.00762 1.49162,0.94523 1.30741,1.05 -1.16759,0.66407 -1.61625,-0.25201 -5.66625,-0.013 -9,0.5312 -8.91787,1.45567 -12.65894,1.59805 -12.28207,0.46744 z m -88.20902,-6.30509 c -0.046,-2.05781 0.50536,-3.36391 1.59693,-3.78278 2.74779,-1.05443 3.66939,0.92813 1.88987,4.06551 l -1.62235,2.86028 0.63956,-3.37511 c 0.44963,-2.37275 0.30598,-3.16893 -0.48368,-2.6809 -0.61778,0.38182 -0.94721,1.00061 -0.73206,1.37511 0.21515,0.37449 0.0291,1.5809 -0.41341,2.6809 -0.6673,1.65875 -0.81657,1.46373 -0.87486,-1.14301 z M 120.63837,132.5 c 0.31659,-0.825 0.75246,-1.5 0.96862,-1.5 0.21615,0 0.39301,0.675 0.39301,1.5 0,0.825 -0.43588,1.5 -0.96862,1.5 -0.53273,0 -0.70959,-0.675 -0.39301,-1.5 z m -14.47842,-2 c -0.0189,-1.1 0.53806,-5.375 1.23776,-9.5 0.87558,-5.16181 1.51384,-6.95193 2.0473,-5.742 0.45183,1.02478 -0.0644,4.98699 -1.23776,9.5 -1.10707,4.2581 -2.02836,6.842 -2.0473,5.742 z m 69.17527,0.80543 c -2.4496,-0.47775 -5.38395,-6.66083 -5.25627,-11.07567 0.0842,-2.91066 0.35655,-2.47983 1.40229,2.21809 0.52019,2.33694 0.86275,2.64779 1.65297,1.5 0.75649,-1.0988 0.85229,-0.93082 0.39735,0.69678 -0.67383,2.41075 1.65256,5.35537 4.231,5.35537 1.35745,0 1.30541,-0.25609 -0.32143,-1.58164 -1.77628,-1.44731 -1.78556,-1.53223 -0.10934,-1 1.00748,0.3199 2.01998,0.58164 2.25,0.58164 0.23001,0 0.41821,0.9 0.41821,2 0,1.98368 -0.48757,2.12012 -4.66478,1.30543 z M 122,129.101 c 0,-0.48369 0.88503,-1.94178 1.96673,-3.24022 1.41756,-1.70157 1.97602,-1.93418 2,-0.83302 0.0183,0.84027 -0.86673,2.29836 -1.96673,3.24021 -1.1,0.94185 -2,1.31671 -2,0.83303 z m 11,-2.04198 c 0,-0.51754 0.45,-1.2191 1,-1.55902 0.55,-0.33992 1,0.0835 1,0.94098 0,0.85746 -0.45,1.55902 -1,1.55902 -0.55,0 -1,-0.42344 -1,-0.94098 z m 49.76155,-0.89915 c -2.45153,-1.48364 -4.29261,-3.96214 -3.51831,-4.73644 0.15967,-0.15967 2.48936,0.82442 5.1771,2.18688 2.68773,1.36245 5.60518,2.2847 6.48322,2.04944 1.10268,-0.29545 0.94848,-0.46363 -0.49857,-0.54375 -2.09032,-0.11574 -6.64107,-4.116 -4.68242,-4.116 0.5679,0 1.61422,0.70088 2.32516,1.55752 0.71095,0.85663 2.45355,1.46705 3.87245,1.35649 3.96079,-0.30864 6.38904,1.00847 4.9829,2.70277 -1.59315,1.91963 -10.70083,1.62536 -14.14153,-0.45691 z M 264,125.44098 c 0,-0.85746 0.45734,-1.27636 1.01631,-0.9309 0.55897,0.34546 0.75742,1.04702 0.44098,1.55902 C 264.60006,127.45614 264,127.19751 264,125.44098 Z m -64.75,-3.66147 c -3.33137,-1.60666 -2.73048,-2.78714 0.75,-1.47341 1.65,0.62281 3,1.48372 3,1.91314 0,1.01253 -0.97609,0.89807 -3.75,-0.43973 z m -82.17105,-1.36284 c 0.048,-1.16495 0.28494,-1.4019 0.60416,-0.60417 0.28887,0.72187 0.25335,1.58437 -0.0789,1.91667 -0.3323,0.33229 -0.56864,-0.25834 -0.52522,-1.3125 z M 134,120.5 c 0.68469,-0.825 2.17329,-1.5 3.30799,-1.5 1.13471,0 3.10461,-0.97844 4.37756,-2.17431 2.24366,-2.10781 2.31445,-2.11366 2.31445,-0.19113 0,2.6841 -2.72491,6.19268 -3.731,4.804 C 139.3858,120.21949 135,120.03281 135,121.21429 135,121.64643 134.4949,122 133.87756,122 133.10205,122 133.1399,121.53636 134,120.5 Z m 38.15789,-0.5 c 0,-1.375 0.22698,-1.9375 0.50439,-1.25 0.27741,0.6875 0.27741,1.8125 0,2.5 -0.27741,0.6875 -0.50439,0.125 -0.50439,-1.25 z m 36.11114,-0.69299 c 0.97297,-0.25354 2.32297,-0.23687 3,0.037 0.67703,0.27393 -0.11903,0.48137 -1.76903,0.46099 -1.65,-0.0204 -2.20394,-0.2445 -1.23097,-0.49804 z M 226,118.95616 c 0,-0.57411 -0.65216,-0.91161 -1.44924,-0.75 -0.79708,0.16161 -4.14194,-2.06866 -7.43302,-4.95616 -3.61684,-3.17331 -6.92124,-5.25 -8.35376,-5.25 -3.34344,0 -10.41027,-5.48656 -11.28095,-8.758322 C 197.08174,97.733755 196.5464,97.0625 196.29337,97.75 196.04035,98.4375 195.14769,99 194.30968,99 193.33115,99 193.00319,98.434078 193.39301,97.418213 193.72686,96.548229 194,95.396672 194,94.859196 c 0,-0.537477 0.45,-0.699115 1,-0.359196 0.55,0.339919 1,0.114919 1,-0.5 0,-2.11765 1.84724,0.028 2.47165,2.870926 1.03246,4.700734 5.6858,8.376474 10.51985,8.309754 2.90295,-0.0401 4.62809,0.52009 5.79346,1.88113 0.91273,1.06601 2.20439,1.93819 2.87033,1.93819 0.66595,0 2.87015,2.025 4.89822,4.5 2.02808,2.475 4.42071,4.50689 5.31695,4.51531 0.89625,0.008 2.30454,0.45153 3.12954,0.98469 1.13826,0.7356 0.71622,0.97307 -1.75,0.98469 -1.7875,0.008 -3.25,-0.45442 -3.25,-1.02853 z m 34.72917,0.43967 c -0.40105,-0.40104 -0.71549,-1.66666 -0.69876,-2.8125 0.0281,-1.92359 0.11018,-1.94626 1.07077,-0.29565 1.11861,1.92211 0.83248,4.31265 -0.37201,3.10815 z m -92.65022,-2.97916 c 0.048,-1.16495 0.28494,-1.4019 0.60416,-0.60417 0.28887,0.72187 0.25335,1.58437 -0.0789,1.91667 -0.3323,0.33229 -0.56864,-0.25834 -0.52522,-1.3125 z M 201.75,115.88491 c -2.85339,-2.12886 -3.60975,-5.23552 -1.58006,-6.48994 0.78564,-0.48555 0.96109,-0.17881 0.53413,0.93383 -0.55683,1.45106 2.43243,5.507 4.23449,5.74551 5.94346,0.78666 7.75427,1.9383 2.97811,1.89401 -1.87917,-0.0174 -4.65417,-0.95496 -6.16667,-2.08341 z M 170.1809,116 c 0.0341,-2.77213 1.39858,-6.48946 2.01509,-5.48992 0.33582,0.54446 0.0156,2.33992 -0.71148,3.98992 -0.72714,1.65 -1.31376,2.325 -1.30361,1.5 z m 1.84973,0.5 c 0,-0.55 0.43621,-1.675 0.96937,-2.5 0.53316,-0.825 0.96937,-1.05 0.96937,-0.5 0,0.55 -0.43621,1.675 -0.96937,2.5 -0.53316,0.825 -0.96937,1.05 -0.96937,0.5 z M 198,115.94098 c 0,-0.58246 0.45,-0.7809 1,-0.44098 0.55,0.33992 1,0.81648 1,1.05902 0,0.24254 -0.45,0.44098 -1,0.44098 -0.55,0 -1,-0.47656 -1,-1.05902 z M 128.5,113 c -0.33992,-0.55 -0.14148,-1 0.44098,-1 0.58246,0 1.05902,0.45 1.05902,1 0,0.55 -0.19844,1 -0.44098,1 -0.24254,0 -0.7191,-0.45 -1.05902,-1 z m -19.83333,-1.66667 c -1.04266,-1.04265 -0.78108,-10.14459 0.31094,-10.81949 0.59888,-0.37013 0.94464,1.7377 0.89251,5.44098 -0.0889,6.3125 -0.12188,6.46008 -1.20345,5.37851 z M 111,106.38528 c 0,-3.78481 0.37125,-5.4282 1.16637,-5.16316 1.61189,0.5373 1.68611,9.62109 0.0836,10.23569 -0.90747,0.34805 -1.25,-1.04195 -1.25,-5.07253 z m 13.46528,3.61002 c -2.76095,-1.04697 -4.06803,-2.88393 -4.79957,-6.7453 -0.746,-3.937718 0.83842,-4.378437 1.79754,-0.5 0.37403,1.5125 1.88532,3.72216 3.35841,4.91036 2.96276,2.38978 2.78908,3.52772 -0.35638,2.33494 z m 61.15972,0.20695 c -0.27117,-0.43876 -0.0796,-1.45126 0.42567,-2.25 0.71729,-1.13385 0.92206,-0.95896 0.93402,0.79775 0.0157,2.31303 -0.49232,2.85568 -1.35969,1.45225 z m 70.45395,-1.78558 c 0.048,-1.16495 0.28494,-1.4019 0.60416,-0.60417 0.28887,0.72187 0.25335,1.58437 -0.0789,1.91667 -0.33229,0.33229 -0.56864,-0.25834 -0.52522,-1.3125 z M 172.5,108 c 0.33992,-0.55 1.06803,-1 1.61803,-1 0.55,0 0.72189,0.45 0.38197,1 -0.33992,0.55 -1.06803,1 -1.61803,1 -0.55,0 -0.72189,-0.45 -0.38197,-1 z M 129,100 c -0.63912,-1.194211 -0.93704,-2.396293 -0.66204,-2.671293 0.275,-0.275 1.02292,0.477082 1.66204,1.671293 0.63912,1.19421 0.93704,2.39629 0.66204,2.67129 -0.275,0.275 -1.02292,-0.47708 -1.66204,-1.67129 z m 45.55887,-1.468197 C 177.26319,96.486361 179.68978,96.463934 178,98.5 c -0.68469,0.825 -2.1758,1.5 -3.31357,1.5 -2.03366,0 -2.03582,-0.02486 -0.12756,-1.468197 z M 122,95.725684 c 0,-1.984208 0.4787,-3.903503 1.06378,-4.265102 0.72434,-0.447666 0.84155,0.570542 0.36734,3.190983 C 122.50699,99.758162 122,100.13868 122,95.725684 Z m 34.66667,2.607649 c -0.36667,-0.366666 -0.61343,-2.279166 -0.54836,-4.25 0.1181,-3.576763 0.11952,-3.577832 0.77108,-0.583333 0.56182,2.582079 1.10257,2.998653 3.88168,2.990334 1.93481,-0.0058 3.22893,0.495195 3.22893,1.25 0,1.317227 -6.11465,1.81168 -7.33333,0.592999 z m -21.59638,-1.501546 c -0.0387,-0.917516 -0.34343,-2.380016 -0.67728,-3.25 C 134.05917,92.711804 134.23602,92 134.78602,92 c 1.48075,0 2.04681,2.222999 1.14588,4.5 -0.62408,1.577306 -0.80618,1.647428 -0.86161,0.331787 z m 38.00868,-2.096529 C 171.7474,94.055866 170.44416,92.825 170.18287,92 c -0.37336,-1.178854 -0.0523,-1.12533 1.49977,0.25 1.08616,0.9625 2.70035,1.75 3.58708,1.75 0.88674,0 1.89036,0.45 2.23028,1 0.84736,1.371049 -1.48921,1.23113 -4.42103,-0.264742 z M 183.86704,93.25 c 0.51557,-0.9625 3.23386,-4 6.04065,-6.75 2.80678,-2.75 4.8987,-5.539583 4.6487,-6.199072 -0.26493,-0.69888 0.12361,-0.97722 0.9314,-0.667242 C 196.93807,80.190213 196.44163,83 194.89301,83 194.40186,83 194,83.675 194,84.5 c 0,0.825 -0.68614,1.5 -1.52475,1.5 -0.83861,0 -1.9156,1.0125 -2.3933,2.25 -0.79866,2.068956 -5.39284,6.75 -6.62474,6.75 -0.29017,0 -0.10574,-0.7875 0.40983,-1.75 z M 118.5,93 c 0.33992,-0.55 0.81648,-1 1.05902,-1 0.24254,0 0.44098,0.45 0.44098,1 0,0.55 -0.47656,1 -1.05902,1 -0.58246,0 -0.7809,-0.45 -0.44098,-1 z M 162,90.5 c 1.29175,-1.375 3.02363,-2.5 3.84863,-2.5 1.10703,0 0.88471,0.654946 -0.84863,2.5 -1.29175,1.375 -3.02363,2.5 -3.84863,2.5 -1.10703,0 -0.88471,-0.654946 0.84863,-2.5 z m 21,-0.416667 c 0,-0.504166 0.50989,-1.086631 1.1331,-1.294365 0.6232,-0.207734 1.6357,-1.898935 2.25,-3.758224 0.61429,-1.85929 1.7919,-3.600005 2.6169,-3.868256 1.17316,-0.381458 1.2543,-0.17993 0.37239,0.924891 -0.62019,0.776941 -1.46706,2.516633 -1.88193,3.865981 C 186.40711,89.47686 183,92.610452 183,90.083333 Z m -67,-2.024316 c 0,-0.517541 0.44485,-1.215913 0.98855,-1.551938 0.56686,-0.350339 0.7345,0.05106 0.39301,0.940983 C 116.71677,89.180479 116,89.497449 116,88.059017 Z m 3.76845,-0.227467 c 0.5811,-0.581102 1.64682,-0.859794 2.36826,-0.619313 0.74895,0.249648 0.29565,0.702941 -1.05655,1.05655 -1.66335,0.434974 -2.05378,0.304831 -1.31171,-0.437237 z m 89.79584,-1.124678 c 0.37553,-0.986221 0.93469,-1.541221 1.24258,-1.233333 0.30789,0.307887 6.4e-4,1.114794 -0.68278,1.793128 -0.98762,0.980267 -1.10248,0.865403 -0.5598,-0.559795 z M 240.5,87 c 0.33992,-0.55 0.81648,-1 1.05902,-1 0.24254,0 0.44098,0.45 0.44098,1 0,0.55 -0.47656,1 -1.05902,1 -0.58246,0 -0.7809,-0.45 -0.44098,-1 z M 123,85.268467 C 123,84.7055 123.675,83.684689 124.5,83 c 0.825,-0.684689 1.5,-2.063232 1.5,-3.063428 0,-1.000196 0.45,-2.096653 1,-2.436572 2.07479,-1.282293 0.89532,3.509906 -1.5,6.094501 -1.375,1.483649 -2.5,2.236934 -2.5,1.673966 z m 39.92431,-1.63275 C 164.25769,82.186073 165.77529,81 166.29676,81 c 1.34213,0 -1.22791,2.899247 -3.71452,4.190314 -1.85806,0.964722 -1.82123,0.797346 0.34207,-1.554597 z M 172,84.059017 c 0,-0.517541 0.44485,-1.215913 0.98855,-1.551938 0.56686,-0.350339 0.7345,0.05106 0.39301,0.940983 C 172.71677,85.180479 172,85.497449 172,84.059017 Z m 43,-0.118034 c 0,-0.582459 0.45,-0.780902 1,-0.440983 0.55,0.339919 1,0.816476 1,1.059017 C 217,84.801558 216.55,85 216,85 c -0.55,0 -1,-0.476558 -1,-1.059017 z m 48.98469,-1.524316 C 263.97188,80.813094 263.81102,80.74503 263,82 c -0.58246,0.901292 -0.97549,1.024633 -0.98469,0.309017 -0.025,-1.943359 1.94774,-2.568882 2.61529,-0.829271 0.33906,0.883581 0.33588,1.887103 -0.007,2.230049 -0.34295,0.342946 -0.63043,-0.238962 -0.63885,-1.293128 z M 121,81.440983 c 0,-0.857459 0.45734,-1.276365 1.01631,-0.930902 0.55897,0.345464 0.75742,1.047021 0.44098,1.559017 C 121.60006,83.456142 121,83.197509 121,81.440983 Z M 198.03041,80.55 c -0.0222,-2.151326 0.26838,-2.651208 1.07321,-1.846375 0.79095,0.790945 0.79957,1.626739 0.0304,2.95 -0.94083,1.618622 -1.07696,1.482488 -1.10362,-1.103625 z m 11.92184,1.39933 C 209.15351,81.444042 208.725,80.989305 209,80.938802 c 0.275,-0.0505 1.2875,-0.242577 2.25,-0.426829 0.9625,-0.184253 1.75,0.04862 1.75,0.517494 0,1.432023 -1.51522,1.889344 -3.04775,0.919863 z M 157,81.181462 c 0,-1.208555 1.8972,-2.617596 2.5907,-1.924098 0.2517,0.251699 -0.22824,1.02686 -1.06653,1.72258 C 157.57378,81.768693 157,81.844555 157,81.181462 Z m 34.56429,-0.47459 c 0.37553,-0.986221 0.93469,-1.541221 1.24258,-1.233333 0.30789,0.307887 6.4e-4,1.114794 -0.68278,1.793128 -0.98762,0.980267 -1.10248,0.865403 -0.5598,-0.559795 z M 173.31442,79.25 c -0.34254,-0.9625 -0.80498,-2.0875 -1.02763,-2.5 -0.22265,-0.4125 0.28261,-0.75 1.12281,-0.75 0.91234,0 1.30707,0.574776 0.98003,1.427037 -0.41222,1.074226 0.0282,1.278585 1.78138,0.826585 2.07999,-0.536255 2.18226,-0.421539 0.95655,1.072963 -1.76245,2.148944 -3.03015,2.123483 -3.81314,-0.07658 z m -54.61005,-0.91933 c -0.71633,-1.159042 0.95298,-4.006654 1.83292,-3.126713 0.35532,0.355321 0.21706,1.412576 -0.30724,2.349456 -0.52431,0.936881 -1.21086,1.286647 -1.52568,0.777257 z M 223.26611,74.784706 223.20164,70.5 l 1.05617,3.293006 c 0.69823,2.176965 0.72008,3.629105 0.0645,4.284706 -0.6556,0.655601 -1.01355,-0.46044 -1.05618,-3.293006 z m 2.16689,-1.227767 c -0.70183,-3.831143 -0.6997,-5.479171 0.007,-5.243676 1.66003,0.553344 2.96511,6.464261 1.93631,8.769884 -0.76346,1.710992 -1.09337,1.1123 -1.9431,-3.526208 z M 230,75 c -0.59134,-1.104923 -0.65928,-2 -0.15182,-2 0.50521,0 1.15391,0.9 1.44157,2 0.28766,1.1 0.35597,2 0.15181,2 C 231.23741,77 230.5887,76.1 230,75 Z M 116.63837,74.5 c 0.31659,-0.825 0.75246,-1.5 0.96862,-1.5 0.21615,0 0.39301,0.675 0.39301,1.5 0,0.825 -0.43588,1.5 -0.96862,1.5 -0.53273,0 -0.70959,-0.675 -0.39301,-1.5 z m 19.61116,0.25 c 0.22891,-0.6875 1.26459,-1.414403 2.3015,-1.615339 1.6311,-0.31608 1.70455,-0.147537 0.54469,1.25 -1.5862,1.911254 -3.44015,2.149229 -2.84619,0.365339 z M 203,72.733693 c -0.8502,-1.826811 -3.2328,-4.192905 -5.5,-5.461907 -3.57677,-2.001992 -3.73548,-2.242246 -1.5,-2.270648 3.22616,-0.04099 5.64296,-1.485734 4.09045,-2.445236 -0.61769,-0.381754 -0.8842,-1.080606 -0.59224,-1.553004 0.29196,-0.472398 -0.3757,-1.146628 -1.48369,-1.498289 -2.09215,-0.664024 -2.63136,-2.005346 -1.16937,-2.908904 1.05956,-0.654846 12.33211,8.370829 12.99437,10.404295 0.26868,0.825 -1.63496,-0.237837 -4.23031,-2.36186 -2.59535,-2.124023 -4.98357,-3.597115 -5.30714,-3.273538 -0.32358,0.323576 0.18881,0.886537 1.13865,1.251023 1.36879,0.525253 1.45032,0.838069 0.39313,1.508226 -0.99872,0.633086 -1.01979,0.849371 -0.0839,0.860836 0.6875,0.0084 1.25,0.481146 1.25,1.050497 0,0.681122 -0.76956,0.643656 -2.25,-0.10954 -1.61471,-0.821508 -1.33236,-0.282656 1,1.908446 2.02289,1.900373 3.25,4.018386 3.25,5.609539 0,3.263373 -0.18066,3.199245 -2,-0.709936 z m -80,0.888752 c 0,-0.757656 0.675,-1.937756 1.5,-2.622445 1.1178,-0.927692 1.5,-0.943853 1.5,-0.06343 0,0.649804 0.44485,0.906532 0.98855,0.570507 0.57775,-0.357074 0.7277,0.06879 0.36083,1.024829 -0.50238,1.309176 -0.79653,1.369462 -1.47323,0.301938 C 125.22863,71.812365 125.02704,71.909821 125.01531,73.25 125.00689,74.2125 124.55,75 124,75 c -0.55,0 -1,-0.6199 -1,-1.377555 z m 29,0.475999 c 0,-1.038441 1.90221,-2.541728 2.46567,-1.94858 0.18294,0.192575 -0.297,0.930378 -1.06653,1.639563 C 152.62961,74.498611 152,74.637669 152,74.098444 Z m 18.07895,-0.681777 c 0.048,-1.164943 0.28494,-1.4019 0.60416,-0.604167 0.28887,0.721875 0.25335,1.584375 -0.0789,1.916667 -0.3323,0.332291 -0.56864,-0.258334 -0.52522,-1.3125 z M 191.5,74 c -1.90836,-0.820049 -1.8969,-0.86265 0.25,-0.929715 C 192.9875,73.031628 194,73.45 194,74 c 0,0.55 -0.1125,0.968372 -0.25,0.929715 C 193.6125,74.891058 192.6,74.472686 191.5,74 Z m 10.16667,0.333333 C 201.3,73.966667 201,73.201667 201,72.633333 c 0,-0.626604 0.46577,-0.567562 1.18333,0.15 0.65084,0.650834 0.95084,1.415834 0.66667,1.7 -0.28417,0.284167 -0.81667,0.216667 -1.18333,-0.15 z M 140,71 c 0,-0.55 0.70156,-1 1.55902,-1 0.85746,0 1.2809,0.45 0.94098,1 -0.33992,0.55 -1.04148,1 -1.55902,1 C 140.42344,72 140,71.55 140,71 Z m -10.6788,-4.499369 c -0.91763,-0.983781 -0.64837,-1.72498 1.21533,-3.345445 2.13196,-1.853718 2.55898,-1.916817 3.89957,-0.576225 1.3406,1.340592 1.78241,1.323973 4.03467,-0.151768 3.22853,-2.115414 3.22212,-1.277872 -0.017,2.217175 -2.75472,2.972396 -7.24095,3.884254 -9.13258,1.856263 z M 166.5,67 c -0.33992,-0.55 -0.14148,-1 0.44098,-1 0.58246,0 1.05902,0.45 1.05902,1 0,0.55 -0.19844,1 -0.44098,1 -0.24254,0 -0.7191,-0.45 -1.05902,-1 z M 227,66.94098 c 0,-0.582459 0.45,-0.780902 1,-0.440983 0.55,0.339919 1,0.816476 1,1.059017 C 229,67.801558 228.55,68 228,68 c -0.55,0 -1,-0.476558 -1,-1.059017 z m -12.28057,-3.401996 c -6.25483,-4.274226 -6.81075,-4.962508 -3.33276,-4.126308 3.1278,0.752003 9.61333,5.276142 9.61333,6.70601 0,1.393797 -1.16767,0.914183 -6.28057,-2.579702 z m -50.68783,-0.32948 c -0.0174,-0.70977 0.9214,-2.57949 2.08617,-4.154932 1.23719,-1.673387 1.79665,-3.384022 1.34549,-4.114016 -0.49945,-0.808128 -0.36441,-0.997503 0.38223,-0.536051 0.63498,0.39244 1.15451,1.561875 1.15451,2.598745 0,2.101857 -4.91846,8.245726 -4.9684,6.206254 z M 172.5,63 c -0.33992,-0.55 0.0835,-1 0.94098,-1 0.85746,0 1.55902,0.45 1.55902,1 0,0.55 -0.42344,1 -0.94098,1 -0.51754,0 -1.2191,-0.45 -1.55902,-1 z m 46.59692,-0.383217 c -0.89163,-1.074352 -0.76999,-1.528261 0.54477,-2.032783 0.93101,-0.357261 2.18,-0.118583 2.77553,0.530396 0.81182,0.884684 0.60946,1.012281 -0.80866,0.50989 -1.60399,-0.568233 -1.69936,-0.438622 -0.62756,0.852822 C 221.67759,63.316444 221.79604,64 221.24489,64 c -0.55,0 -1.51659,-0.622448 -2.14797,-1.383217 z m -77.01797,-1.200116 c 0.048,-1.164943 0.28494,-1.4019 0.60416,-0.604167 0.28887,0.721875 0.25335,1.584375 -0.0789,1.916667 -0.3323,0.332291 -0.56864,-0.258334 -0.52522,-1.3125 z M 137,59.90638 C 137,59.407871 137.4132,59 137.91821,59 c 0.50502,0 1.70384,-0.301472 2.66405,-0.669939 1.09783,-0.421276 1.50514,-0.280493 1.09737,0.379294 C 140.82533,60.091642 137,61.070142 137,59.90638 Z M 145,60 c 0,-0.55 0.47656,-1 1.05902,-1 0.58246,0 0.7809,0.45 0.44098,1 -0.33992,0.55 -0.81648,1 -1.05902,1 C 145.19844,61 145,60.55 145,60 Z m 12.99086,-6.48899 c 0.67967,-0.818944 1.64211,-1.23785 2.13876,-0.930901 C 161.40609,53.369014 160.18544,55 158.31854,55 c -1.27119,0 -1.33244,-0.278321 -0.32768,-1.48899 z M 141.36111,48.25 c 0.19551,-2.463463 1.80967,-3.34751 3.54731,-1.942798 1.154,0.932901 1.31341,0.922933 0.7316,-0.04575 -0.52032,-0.866298 -0.23117,-1.041794 0.96205,-0.583914 1.52298,0.584423 1.46304,0.851318 -0.55885,2.488546 -2.85801,2.314277 -4.86197,2.350192 -4.68211,0.08391 z m 25.30933,-1.015584 c 0.31404,-1.246071 0.96666,-2.510129 1.45027,-2.809017 1.36855,-0.845815 1.03519,0.983673 -0.57097,3.133471 -1.39917,1.872743 -1.43015,1.861312 -0.8793,-0.324454 z m 28.06289,0.641496 c 0.67834,-0.683418 1.48524,-0.990671 1.79313,-0.682784 0.30789,0.307887 -0.24711,0.867048 -1.23333,1.242579 -1.4252,0.542685 -1.54006,0.427821 -0.5598,-0.559795 z M 178.5,46 c 0.33992,-0.55 0.81648,-1 1.05902,-1 0.24254,0 0.44098,0.45 0.44098,1 0,0.55 -0.47656,1 -1.05902,1 -0.58246,0 -0.7809,-0.45 -0.44098,-1 z M 171,44.622445 c 0,-0.207656 0.7875,-0.995156 1.75,-1.75 1.58606,-1.243871 1.62143,-1.208501 0.37756,0.377555 C 171.82119,44.915748 171,45.445479 171,44.622445 Z M 161,35 c 0,-0.55 0.64844,-1 1.44098,-1 0.79254,0 1.7191,0.45 2.05902,1 0.33992,0.55 -0.30852,1 -1.44098,1 C 161.92656,36 161,35.55 161,35 Z"
       id="path4151"
       inkscape:connector-curvature="0" />
  </g>
</svg>
